<?xml version="1.0" standalone="no"?>
<!DOCTYPE svg PUBLIC "-//W3C//DTD SVG 20010904//EN"
 "http://www.w3.org/TR/2001/REC-SVG-20010904/DTD/svg10.dtd">
<svg version="1.0" xmlns="http://www.w3.org/2000/svg"
 width="224.000000pt" height="81.000000pt" viewBox="0 0 224.000000 81.000000"
 preserveAspectRatio="xMidYMid meet">

<g transform="translate(0.000000,81.000000) scale(0.100000,-0.100000)"
fill="#000000" stroke="none">
<path d="M0 405 l0 -405 590 0 590 0 0 405 0 405 -590 0 -590 0 0 -405z m466
250 c56 -23 64 -56 64 -256 0 -188 -8 -224 -57 -250 -35 -19 -106 -16 -138 5
-44 29 -49 57 -50 251 0 197 3 212 58 245 38 24 75 25 123 5z m-226 -205 c0
-236 -6 -267 -60 -295 -17 -9 -46 -15 -63 -13 -29 3 -32 6 -35 41 -3 35 -2 37
27 37 20 0 34 7 41 19 6 12 10 101 10 220 l0 201 40 0 40 0 0 -210z m420 -10
l0 -220 65 0 65 0 0 -40 0 -40 -105 0 -105 0 0 260 0 260 40 0 40 0 0 -220z
m215 103 l28 -118 31 118 30 117 38 0 c21 0 38 -2 38 -6 0 -3 -22 -82 -50
-176 -42 -145 -50 -184 -50 -254 l0 -84 -40 0 -40 0 0 86 c0 83 -15 148 -96
417 -5 14 1 17 38 17 l44 0 29 -117z m215 -363 l0 -40 -40 0 -40 0 0 40 0 40
40 0 40 0 0 -40z"/>
<path d="M377 583 c-9 -8 -9 -336 -1 -357 9 -22 51 -20 64 3 15 29 13 334 -2
349 -13 13 -50 16 -61 5z"/>
<path d="M1220 795 c0 -13 56 -15 445 -15 389 0 445 2 445 15 0 13 -56 15
-445 15 -389 0 -445 -2 -445 -15z"/>
<path d="M1228 664 c-5 -4 -8 -124 -8 -266 l0 -258 80 0 c96 0 135 16 156 65
26 64 16 162 -21 199 -16 16 -16 18 1 37 21 24 31 121 15 161 -5 15 -21 34
-34 43 -26 17 -177 32 -189 19z m146 -90 c3 -9 6 -35 6 -59 0 -47 -17 -65 -59
-65 -19 0 -21 6 -21 70 l0 70 34 0 c22 0 36 -6 40 -16z m0 -210 c22 -22 22
-117 0 -139 -9 -9 -28 -15 -43 -13 -25 3 -26 5 -29 86 l-3 82 30 0 c16 0 37
-7 45 -16z"/>
<path d="M1520 405 l0 -266 108 3 107 3 3 33 3 32 -70 0 -71 0 0 80 0 80 55 0
55 0 0 35 0 35 -55 0 -55 0 0 75 0 74 68 3 67 3 0 35 0 35 -107 3 -108 3 0
-266z"/>
<path d="M1790 406 l0 -266 105 0 105 0 0 35 0 35 -65 0 -65 0 -2 228 -3 227
-37 3 -38 3 0 -265z"/>
<path d="M2035 657 c-3 -7 -4 -125 -3 -262 l3 -250 103 -3 102 -3 0 35 0 35
-62 3 -63 3 -3 228 -2 227 -36 0 c-19 0 -37 -6 -39 -13z"/>
<path d="M1220 15 c0 -13 63 -15 510 -15 447 0 510 2 510 15 0 13 -63 15 -510
15 -447 0 -510 -2 -510 -15z"/>
</g>
</svg>
